<svg xmlns="http://www.w3.org/2000/svg" width="295" height="395" viewBox="0 0 295 395" fill="none">
  <path fill-rule="evenodd" clip-rule="evenodd" d="M191.3 5.3H213.1V0.800003C213.2 0.900003 213.4 0.900003 213.5 1V5.4H228.4C228.3 5.5 228.1 5.7 228 5.8H213.5V22.6C213.3 22.7 213.2 22.8 213.1 23V5.8H191C191 5.7 191.1 5.6 191.2 5.5L191.3 5.3ZM669.4 351.5H666.1C666.1 351.4 666.1 351.3 666.1 351.2C666.1 351.2 666.1 351.1 666 351.1H669.2C669.3 351.2 669.3 351.3 669.4 351.5ZM648.3 373.1V380.9C648.2 381.1 648 381.4 647.9 381.6V373.4C648 373.3 648.1 373.3 648.3 373.1ZM650.1 274.7H648.7C648.7 274.6 648.8 274.4 648.8 274.3H649.4C649.6 274.4 649.9 274.5 650.1 274.7ZM627.4 351.5H608.8V356.2C608.7 356.1 608.5 356.1 608.4 356V351.5H604.7C604.8 351.4 604.8 351.2 604.8 351.1H608.3V313.1H569.2V340.9C569.1 340.9 568.9 340.9 568.8 340.9V313.1H555.7C555.7 313 555.7 312.9 555.7 312.7V312.6H568.8V306L569.2 305.9V312.6H608.3V297.1C608.4 297.2 608.6 297.2 608.7 297.3V312.5H635C635.3 312.6 635.5 312.7 635.8 312.8C635.9 312.8 635.9 312.9 636 312.9H608.8V350.9H627.5C627.5 351.2 627.4 351.4 627.4 351.5ZM641.9 274.7H634.9C634.8 274.6 634.8 274.4 634.8 274.3H642.6C642.3 274.3 642.1 274.5 641.9 274.7ZM631.7 274.7H612.2C612.1 274.5 612 274.4 611.9 274.3H630.4C630.5 274.3 630.6 274.4 630.7 274.4C631 274.4 631.4 274.5 631.7 274.7ZM608.8 288.7V289.4C608.7 289.7 608.5 290 608.4 290.2V288.4C608.5 288.5 608.6 288.5 608.8 288.7ZM633.6 274.2C633.7 274.2 633.8 274.2 633.8 274.2C633.8 274.3 633.8 274.3 633.7 274.4C633.6 274.4 633.6 274.4 633.6 274.3C633.6 274.3 633.6 274.3 633.6 274.2ZM608.8 267.3V272.7C608.7 272.7 608.5 272.6 608.4 272.6V267.6C608.5 267.5 608.7 267.4 608.8 267.3ZM625.3 121H622.6C622.5 120.9 622.5 120.7 622.4 120.6H625.5C625.5 120.7 625.4 120.8 625.3 120.9C625.4 120.9 625.4 121 625.3 121ZM608.8 149.5V153.4C608.6 153.5 608.5 153.6 608.4 153.7V149.7C608.5 149.7 608.7 149.6 608.8 149.5ZM624.9 82.6H623.7C623.6 82.5 623.5 82.3 623.4 82.2H624.9C625 82.3 624.9 82.5 624.9 82.6ZM622.4 82.6H615.1C615.2 82.4 615.2 82.3 615.3 82.2H622.5C622.5 82.3 622.4 82.5 622.4 82.6ZM644.7 44.2H637.6L637.5 44.1C637.4 44 637.3 43.9 637.1 43.8H644.8C644.8 43.9 644.8 44 644.8 44.1C644.7 44.1 644.7 44.1 644.7 44.2ZM635.4 44.2C635.6 44 635.9 43.9 636.1 43.8H608.8V29.3C608.7 29.3 608.5 29.3 608.4 29.3V43.8H569.3V35.5C569.2 35.6 569 35.6 568.9 35.7V43.8H539.2C539.1 43.9 539.1 44.1 538.9 44.2C538.5 44.4 538.1 44.2 537.9 43.8H533.2C533.2 43.8 533.2 43.8 533.2 43.9C533.2 44 533.1 44.2 533 44.3H568.9V82.3H529.8V44.6C529.6 44.5 529.5 44.5 529.4 44.4V48.7C529.4 48.8 529.4 48.8 529.4 48.9C529.4 49 529.4 49.1 529.4 49.1V82.1H490.3V44.1H522.2C522.2 43.9 522.1 43.8 522 43.7H505.3C504.9 43.8 504.6 43.8 504.2 43.7H501.6C501.5 43.7 501.3 43.7 501.2 43.7H490.3V42.9C490.2 42.9 490.2 42.9 490.1 42.9C490.1 43 490 43.2 490 43.3C490 43.4 489.9 43.4 489.9 43.5V43.7H489.7C489.5 43.9 489.2 44.1 488.9 44.1H489.8V82.1H450.7V44.1H467.7C467.7 44 467.6 43.8 467.6 43.7H450.7V41.7C450.6 41.8 450.4 41.9 450.3 41.9V43.6H447.8C447.6 43.7 447.5 43.9 447.3 44H450.2V71H450.3C450.4 71 450.4 71.1 450.4 71.2C450.4 71.3 450.3 71.3 450.3 71.4L450.2 71.5V82.2H438.8C438.9 82.3 439.1 82.5 439.2 82.6H450.2V120.6H411.1V82.8C411 82.8 410.8 82.8 410.7 82.8C410.7 82.8 410.7 82.8 410.6 82.8V120.5H371.5V100.2C371.4 99.9 371.4 99.5 371.5 99.1C371.6 98.3 371.5 97.8 371.1 97.4V120.5H361.7C361.3 120.7 360.9 120.6 360.4 120.5H356C355.7 120.6 355.4 120.7 355.1 120.8C355 120.8 354.9 120.9 354.8 120.9H371.1V158.9H332V137.4C332 137.4 331.9 137.4 331.9 137.5C331.8 137.5 331.7 137.5 331.6 137.5V159H308.3C308.4 159.1 308.4 159.3 308.4 159.4H331.7V166.6L331.8 166.8C331.9 166.9 332 167 332.1 167.1V159.4H371C371.2 159.1 371.4 158.8 371.6 158.6V121H410.7V155.9C410.8 155.8 411 155.7 411.1 155.7V121H450.2V159H414.5C414.3 159.1 414.2 159.2 414.2 159.4H450.3V197.4H416.9C417.1 197.5 417.2 197.7 417.3 197.8H450.3V207.5C450.4 207.5 450.6 207.5 450.7 207.4V197.8H489.8V225.6C489.9 225.5 490 225.4 490.1 225.3C490.2 225.3 490.2 225.2 490.3 225.2V197.8H529.4V233.5C529.5 233.5 529.7 233.6 529.8 233.6C529.8 233.6 529.9 233.6 529.9 233.7V197.8H569V200.8C569.1 200.5 569.2 200.2 569.3 199.8C569.3 199.6 569.4 199.4 569.5 199.2V197.8H570.6C570.7 197.7 570.7 197.5 570.7 197.4H569.4V192.9C569.3 192.9 569.1 192.9 569 192.9V197.5H529.9V159.5H569V166.8C569.1 166.8 569.3 166.7 569.4 166.7V159.5H579.7C579.7 159.3 579.7 159.2 579.8 159.1H569.5V121.1H590.6C590.6 121 590.5 121 590.4 120.9C590.3 120.8 590.2 120.7 590.2 120.6H569.5V82.6H603.1C603.1 82.5 603.1 82.3 603.1 82.2H569.5V44.2H608.6V78.2C608.8 78.1 608.9 78.1 609 78.2V44.2H635.4ZM569.3 280V281.5C569.2 281.5 569 281.6 568.9 281.6V279.9C569 279.9 569.1 279.9 569.3 280ZM604.8 274.7H604C604 274.6 604.1 274.6 604.1 274.5C604.1 274.4 604.2 274.4 604.3 274.4C604.6 274.4 604.7 274.5 604.8 274.7ZM571.5 274.2H573.3H573.2C572.7 274.5 572.1 274.6 571.5 274.2ZM584.3 236.3H582C581.9 236.2 581.9 236 581.8 235.9H584.2C584.2 236 584.3 236.1 584.3 236.3ZM581 236.3H580C580 236.3 579.9 236.3 579.9 236.2C579.6 236.1 579.4 235.9 579.3 235.8H581.1C581 236 580.9 236.1 581 236.3ZM572.3 236.3H571.4V236.2C571.4 236.1 571.4 235.9 571.5 235.9H572.1C572.2 236 572.3 236.1 572.4 236.1C572.4 236.1 572.3 236.2 572.3 236.3ZM569.3 240.4V241.9C569.2 242.1 569 242.3 568.9 242.4V241C569 240.8 569.1 240.6 569.3 240.4ZM569.3 250.3V252.3C569.2 252.4 569.2 252.5 569.2 252.6C569.2 252.9 569.1 253.1 568.9 253.3V250L569 250.1C569.1 250.1 569.2 250.2 569.3 250.3ZM569.3 259.4V260.9C569.2 260.9 569 260.9 568.9 260.9V259C569 259.2 569.1 259.3 569.3 259.4ZM604.4 159.4H602.6C602.7 159.2 602.9 159.1 603 159H604.2C604.3 159.1 604.4 159.3 604.4 159.4ZM569.3 187.9V189.1C569.2 189.1 569.2 189.2 569.1 189.2C569 189.2 568.9 189.3 568.9 189.3V187.5C569 187.6 569.1 187.8 569.3 187.9ZM569.3 189.9V191.9C569.1 192 569 192.2 568.9 192.3V189.6C569 189.6 569.1 189.7 569.3 189.9ZM594.9 121H591.2C591.2 120.9 591.1 120.7 591.1 120.6H594.8C594.8 120.7 594.9 120.9 594.9 121ZM542.2 274.7H541.7C541.4 274.7 541 274.7 540.7 274.7H538.9C538.8 274.7 538.7 274.6 538.6 274.5C538.5 274.4 538.5 274.3 538.4 274.3H542.4C542.2 274.4 542.2 274.5 542.2 274.7ZM548.7 236.3H533.6C533.4 236.1 533.1 236 532.9 235.9H548.9C548.7 236 548.7 236.1 548.7 236.3ZM529.8 244.4V250C529.7 249.6 529.7 249.1 529.4 248.8V244C529.5 244.1 529.6 244.2 529.7 244.3C529.6 244.3 529.7 244.3 529.8 244.4ZM529.8 256.5V264.5C529.7 264.2 529.5 263.9 529.4 263.7V255.9L529.5 256C529.5 256.2 529.6 256.3 529.8 256.5ZM529.8 159V121H568.9V159H529.8ZM529.8 120.6V82.6H568.9V120.6H529.8ZM529.8 15.8V22C529.6 22 529.5 22 529.4 22V15.7L529.8 15.8ZM528.3 236.3H525.5C525.5 236.2 525.4 236 525.4 235.9H528.4C528.4 236 528.3 236.1 528.3 236.3ZM490.2 197.4V159.4H529.3V197.4H490.2ZM490.2 159V121H529.3V159H490.2ZM490.2 120.6V82.6H529.3V120.6H490.2ZM529 44.2H527.8C527.8 44.1 527.8 44 527.8 43.9C527.8 43.9 527.8 43.8 527.9 43.8H528.4C528.6 43.9 528.8 44.1 529 44.2ZM485.2 236.3H474.1C474 236.2 473.9 236 473.8 235.9H485.4C485.4 236 485.3 236.1 485.2 236.3ZM450.7 197.4V159.4H489.8V197.4H450.7ZM450.7 159V121H489.8V159H450.7ZM450.7 120.6V82.6H489.8V120.6H450.7ZM488.5 44.2H484.3C484.3 44.1 484.4 43.9 484.4 43.8H487.7L487.8 43.9C488 44.1 488.3 44.2 488.5 44.2ZM482.9 44.2H470.6C470.6 44.1 470.7 43.9 470.7 43.8H483C483 43.9 482.9 44 482.9 44.2ZM412 313.1H411.2V314.6C411.1 314.8 410.9 314.9 410.8 315V313.1H403.5C403.5 313 403.5 312.8 403.5 312.7H410.8V294.7C410.9 294.7 411 294.6 411.1 294.6C411.1 294.6 411.2 294.6 411.2 294.5V312.8H412.2C412.1 312.8 412.1 312.9 412 313.1ZM411.2 239.3V257C411.1 257.1 410.9 257.2 410.8 257.3V239.3C410.9 239.3 411 239.3 411.2 239.3ZM413.3 197.8H411.2V233.9H411.1C411 233.9 410.8 233.9 410.7 233.9V197.9H371.6V235.9H404.7C404.8 236 404.9 236.2 404.9 236.3H371.6V274.3H395.3C395.3 274.5 395.3 274.6 395.4 274.7H371.5V312.7H385.9C385.9 312.9 385.8 313 385.7 313.1H371.5V330.3C371.4 330.4 371.2 330.6 371.1 330.7V313.1H341C341 313 340.9 312.8 340.9 312.7H371.1V274.7H337.1C337 274.6 337 274.4 336.9 274.3H371.1V236.3H332V268C331.8 267.8 331.7 267.7 331.6 267.5V257.7C331.8 257.2 331.9 256.7 331.9 256.2C331.9 255.7 331.8 255.1 331.6 254.6V236.3H292.5V251.9C292.4 251.9 292.4 251.8 292.3 251.8C292.2 251.8 292.1 251.7 292 251.7V236.3H275.4C275.3 236.2 275.2 236 275.1 235.9H292V197.9H290.4C290.4 197.8 290.4 197.6 290.4 197.5H292V191.7C292.1 191.6 292.3 191.4 292.4 191.3V197.5H331.5V182C331.6 182.1 331.8 182.1 331.9 182.2V188.2C331.8 188.3 331.8 188.3 331.7 188.4C331.5 188.6 331.6 189.3 331.9 189.4V197.5H371V195.2C371.1 195.2 371.2 195.2 371.3 195.3C371.4 195.3 371.4 195.3 371.5 195.3V197.5H410.6V168.6C410.8 168.8 410.9 168.9 411 169.1V197.5H413.3C413.3 197.5 413.2 197.6 413.2 197.7C413.3 197.6 413.3 197.7 413.3 197.8ZM436.9 82.6H428.5C428.5 82.5 428.5 82.3 428.5 82.2H436.8C436.8 82.3 436.8 82.5 436.9 82.6ZM427.2 82.6H414.3C414.3 82.4 414.3 82.3 414.2 82.2H426.5C426.7 82.3 426.9 82.5 427.2 82.6ZM411.2 77.4V79.5C411.1 79.4 410.9 79.3 410.8 79.2V77.1C410.9 77.2 411 77.3 411.2 77.4ZM450.3 20.8V19.7L450.4 19.8C450.5 20 450.5 20.6 450.3 20.8ZM406.1 159.4H385.9C386 159.3 386.1 159.1 386.2 159H406.3C406.2 159.1 406.2 159.2 406.1 159.3V159.4ZM381.2 159.4H376.8C376.9 159.3 377.1 159.1 377.2 159C377.2 159 377.2 159 377.2 158.9H380.7C381 159.2 381.1 159.3 381.2 159.4ZM371.7 170.8V183.6H371.6C371.5 183.5 371.4 183.5 371.2 183.4V170.9C371.4 170.8 371.5 170.8 371.7 170.8ZM371.7 85.3V96C371.6 96 371.4 95.9 371.3 95.9V85.1C371.4 85.2 371.5 85.2 371.7 85.3ZM332.1 235.8V197.8H371.2V235.8H332.1ZM344.8 121H342.3C342.2 121 342.1 121 342.1 120.9C342 120.9 341.9 120.9 341.9 121H332.2V127.4C332 127 331.9 126.7 331.8 126.3V121H319.8C319.9 120.8 320.1 120.7 320.2 120.6H331.7V101.9C331.8 101.4 331.8 101 332 100.5C332.2 100 332.1 99.5 332 99C331.9 98.8 332 98.6 332.1 98.5V120.5H344.8C344.8 120.6 344.8 120.7 344.8 120.8C344.8 120.9 344.8 121 344.8 121ZM332.1 132.3V136C332 136 331.8 136 331.7 135.9V134.9C331.8 134.9 331.9 134.9 332 134.9C332.1 134.9 332.1 134.6 332.1 134.5C332 134.3 331.9 134.2 331.8 134V132.6C331.8 132.5 332 132.4 332.1 132.3ZM359.8 82.6H344.2C344.5 82.5 344.9 82.3 345.2 82.2H348.2C348.2 82.3 348.2 82.4 348.2 82.4C348.4 82.4 348.4 82.3 348.5 82.2H352H361.2C360.8 82.5 360.4 82.6 360 82.6C360 82.6 359.9 82.6 359.8 82.6ZM332.1 52.3V58.2H332C331.9 58.2 331.7 58.2 331.6 58.3V52.1C331.8 52.2 332 52.3 332.1 52.3ZM292.6 235.8V197.8H331.7V235.8H292.6ZM292.6 166.1V167.4C292.5 167.2 292.4 167 292.3 166.9C292.2 166.7 292.4 166.3 292.6 166.1ZM292.6 173.9C292.5 174.3 292.3 174.6 292.2 175V178.1C292.4 178.5 292.6 178.9 292.6 179.3V173.9ZM292.6 136.3V144.5C292.5 144.5 292.3 144.5 292.2 144.5V136.4C292.3 136.3 292.4 136.3 292.6 136.3ZM292.6 23V27.9C292.5 28 292.3 28 292.2 28.1V22.8C292.3 22.8 292.5 22.9 292.6 23ZM272.6 82.6C272.6 82.6 272.5 82.6 272.5 82.5C271.8 82.3 271 82.3 270.2 82.1H253.1V44.1H282C282.1 44 282.1 43.8 282.2 43.7H253.1V12.4C253 12.3 252.8 12.3 252.7 12.2V43.8H213.6V29.8C213.5 29.8 213.4 29.8 213.3 29.8C213.2 29.8 213.2 29.8 213.1 29.8V43.7H206.1C206.1 43.7 206 43.8 205.9 43.8C205.7 43.9 205.5 44 205.3 44.1H213.1V47.5C213.3 47.5 213.4 47.4 213.5 47.3V44.1H252.6V82.1H223.6C223.6 82.2 223.6 82.3 223.7 82.4C223.7 82.5 223.7 82.5 223.7 82.6H252.6V92.3C252.7 92.2 252.7 92.1 252.8 92C252.9 91.9 252.9 91.8 253 91.7V82.6H272.6ZM213.8 313.1H213.5V313.2C213.3 313.3 213.2 313.4 213.1 313.4V313H174V351H183.7C183.7 351.1 183.7 351.3 183.6 351.4H174V387.3C173.8 387.5 173.6 387.8 173.6 388.1V351.4H160.1C160.2 351.3 160.2 351.1 160.2 351H173.6V313H161C161 312.9 160.9 312.7 160.9 312.6H173.5V274.6H135.8C135.8 274.6 135.8 274.6 135.8 274.5C135.8 274.4 135.9 274.3 135.9 274.1H173.5V238.6C173.6 238.6 173.7 238.6 173.8 238.7C173.9 238.8 173.9 238.8 174 238.9V274.2H213.1V264.7C213.2 264.8 213.4 264.8 213.5 264.9V274.2H236C236.1 274.3 236.1 274.5 236.2 274.6H213.5V312.6H214.9C214.8 312.6 214.7 312.7 214.6 312.7C214.4 312.8 214.1 312.9 213.8 313.1ZM231.3 5.8C230.9 5.7 230.5 5.6 230.1 5.5C229.5 5.4 229.1 5.4 228.6 5.7C228.4 5.8 228.3 5.8 228.1 5.9H231.3V5.8ZM179.1 389.9H174V392.1L173.6 391.9V389.9H166.4C166.2 389.8 166 389.6 165.7 389.5H168.3C168.4 389.6 168.5 389.7 168.6 389.7C168.6 389.7 168.6 389.8 168.7 389.8L168.8 389.9L168.7 389.8C168.6 389.8 168.6 389.8 168.6 389.7C168.6 389.6 168.5 389.5 168.4 389.5H173.4C173.4 389.6 173.5 389.6 173.6 389.7C173.6 389.7 173.7 389.6 173.8 389.6C173.8 389.5 173.8 389.4 173.9 389.4C173.9 389.1 174 388.8 174 388.5V389.6H178.6C178.8 389.6 178.9 389.8 179.1 389.9ZM174 392.5C173.8 392.5 173.7 392.4 173.6 392.2C173.6 392.1 173.5 392 173.5 391.9V394.1C173.7 394.2 173.8 394.4 173.9 394.6V392.5H174ZM174 274.7V312.7H213.1V274.7H174ZM182.8 159.4H177.3C177.5 159.2 177.7 159.1 178 159H183.1C183 159.1 182.9 159.3 182.8 159.4ZM175.8 159.4H174V160.1C173.9 160.1 173.7 160.2 173.6 160.2V159.4H134.5V197.4C134.4 197.2 134.2 197.1 134.1 196.9V159.5H95V197.5H111.1C110.8 197.6 110.5 197.7 110.2 197.9H95V226.1C94.8 226 94.7 226 94.6 225.9V197.9H73.2C73.1 197.8 73 197.6 72.9 197.5H94.5V159.5H55.4V173C55.3 172.9 55.2 172.9 55 172.8L54.9 172.7V159.4H54.1C54.1 159.3 54.1 159.1 54.1 159H55V156.8C55 156.7 55.1 156.7 55.1 156.6C55.2 156.4 55.3 156.3 55.4 156.1V158.9H94.5V120.9H55.4V122.5C55.3 122.5 55.1 122.6 55 122.6V121H54.8C54.8 120.9 54.7 120.7 54.6 120.6H55V119.7C55.1 119.7 55.2 119.6 55.2 119.4C55.2 119 55.3 118.7 55.5 118.4V120.5H94.6V82.5H55.4V117C55.3 117 55.1 117 55 116.9V82.6H15.9V95C15.8 95.2 15.6 95.3 15.5 95.4V82.6H0.1C0.1 82.5 0 82.3 0 82.2V82.1H15.5V69C15.6 68.9 15.8 68.9 15.9 68.8V82.2H55V44.2H21.9C21.9 44.2 21.9 44.1 21.8 44.1C21.8 44 21.7 43.9 21.7 43.8H55V39.5C55.2 39.9 55.2 40.4 55.4 40.8V43.8H60.9C61 43.9 61.1 43.9 61.3 44C61.5 44.1 61.7 44.2 61.9 44.3H55.4V82.3H94.5V52.1C94.6 52 94.7 51.9 94.8 51.9C94.8 51.9 94.9 51.9 95 51.9V82.2H134V76.3C134.2 76.3 134.3 76.2 134.4 76.2V82.3H168.2C168.2 82.4 168.3 82.6 168.3 82.7H134.4V106C134.2 106.2 134.1 106.4 134 106.5V82.6H95V120.6H134V119.3C134.1 119.3 134.3 119.3 134.4 119.2V120.6H139.7C139.9 120.7 140.1 120.9 140.3 121H134.4V159H173.5V149.2C173.6 149.1 173.8 149.1 173.9 149V159H175.8V159.1C175.9 159.2 175.8 159.3 175.8 159.4ZM174 121H192.2C192.2 120.9 192.1 120.8 192 120.7C191.9 120.7 191.9 120.6 191.9 120.5H174V104C173.9 104 173.7 104.1 173.6 104.1V120.5H163.7C163.7 120.6 163.7 120.8 163.8 120.9H173.7V148.3C173.8 148.2 174 148.1 174.1 148V121H174ZM194.7 82.6H184.1C184.1 82.4 184 82.3 183.9 82.2H193.8C194.2 82.3 194.5 82.4 194.7 82.6ZM174 92.9C173.9 92.9 173.9 92.8 173.8 92.8L173.6 92.7V96.4C173.7 96.4 173.9 96.3 174 96.3V92.9ZM174 44.2H185C184.7 43.9 184.4 43.8 184 43.8C183.5 43.8 182.9 43.8 182.4 43.7H177.6C177.1 43.8 176.6 44 176.2 43.7H174V42.5C173.8 42.4 173.7 42.3 173.6 42.2V43.7H166.7C166.7 43.8 166.6 44 166.6 44.1H173.6V49.2C173.7 49.2 173.9 49.2 174 49.2V44.2ZM174 53.1C173.9 53 173.7 52.9 173.6 52.8V54.4C173.7 54.3 173.9 54.3 174 54.2V53.1ZM174 55.4C173.8 55.4 173.7 55.5 173.6 55.6V72.9C173.7 72.9 173.9 72.9 174 72.9V55.4ZM174 73.3C173.8 73.3 173.7 73.1 173.6 72.9V74.1C173.7 74.2 173.8 74.2 173.8 74.3C173.9 74.3 173.9 74.4 174 74.4V73.3ZM174 36.2V37.4C173.9 37.2 173.9 36.6 174 36.2ZM174 38.4C173.8 38.2 173.6 38.1 173.6 37.9V39.5C173.7 39.5 173.9 39.5 174 39.4V38.4ZM158.2 236.3H156C156.4 236.1 156.8 235.9 157.2 235.9C157.2 235.9 157.2 235.9 157.3 235.9H157.4C157.6 235.9 157.8 236 158 236.1C158 236 158.1 236.1 158.2 236.3ZM134.5 242.6V244.9C134.4 244.8 134.2 244.8 134.1 244.7V242.4C134.2 242.4 134.3 242.5 134.5 242.6ZM139.8 197.8C139.8 197.7 139.7 197.5 139.7 197.4H134.4C134.5 197.5 134.6 197.7 134.8 197.8H139.8ZM134.5 212.2C134.4 212.2 134.2 212.3 134.1 212.3V214C134.3 213.9 134.4 213.9 134.5 213.8V212.2ZM134.5 49.2C134.3 49.6 134.2 50.1 134.1 50.5V67.5C134.1 67.5 134.2 67.4 134.3 67.4C134.4 67.4 134.4 67.4 134.5 67.4V49.2ZM134.5 67.7C134.4 67.7 134.5 67.7 134.5 67.7C134.3 67.7 134.2 67.7 134.2 67.7C134.1 67.7 134.1 67.6 134.1 67.6V70.5C134.2 70.5 134.4 70.4 134.5 70.4C134.5 70.4 134.5 70.4 134.6 70.4V67.7H134.5ZM134.5 19.5V25.9C134.3 25.9 134.2 26 134.1 26V19.6C134.2 19.5 134.3 19.5 134.5 19.5ZM134.5 27.4V36C134.4 36 134.2 36 134.1 36V27.7C134.2 27.6 134.3 27.5 134.5 27.4ZM134.5 36.3L134.1 36.4V39.5H134.2C134.3 39.5 134.4 39.5 134.6 39.5V36.3H134.5ZM131.2 236.3H123.6C123.5 236.2 123.3 236 123.2 235.9H131.5C131.4 236 131.3 236.1 131.2 236.3ZM121.2 197.8C121.3 197.6 121.3 197.5 121.4 197.4H117.2L117.3 197.5C117.4 197.6 117.5 197.7 117.5 197.8H121.2ZM134 121H95V159H134V121ZM134 118.1C134.1 117.8 134.1 117.6 134.1 117.2C134.1 116.8 134 116.4 134 115.9V118.1ZM125.5 44.2C125.4 44.2 125.4 44.2 125.5 44.2C125.3 44.1 125.1 44 125 43.9L125.1 43.8H125V43.7H106.7C106.5 43.8 106.3 44 106.2 44.1H123.6C124 43.8 124.5 43.8 125 43.7C125 43.7 125 43.7 125 43.8C124.8 44 124.6 44 124.4 44.1H125.5V44.2ZM70.5 197.8C70.4 197.7 70.3 197.5 70.2 197.4H67.6C67.7 197.5 67.8 197.7 67.9 197.8H70.5ZM55.4 173.4C55.3 173.7 55.2 173.9 55.1 174.1C55 174.3 55 174.6 55.1 174.8C55.2 175.1 55.3 175.4 55.4 175.6V173.4ZM55.4 177.1V177.2V177.1ZM55.4 131.8C55.3 131.8 55.2 131.8 55 131.7H54.9V134.2C54.9 134.2 54.9 134.2 54.9 134.3C55 134.5 55.2 134.6 55.3 134.8V131.8H55.4ZM15.9 53.2C15.7 53.3 15.6 53.4 15.5 53.5V64.3H15.6C15.7 64.2 15.8 64.2 15.9 64.1V53.2ZM55 38.3V37.6C55 37.7 55.1 37.7 55.1 37.8C55.2 37.9 55.1 38.1 55 38.3Z" fill="#3685FB" fill-opacity="0.3"/>
</svg>